<svg xmlns="http://www.w3.org/2000/svg" viewBox="0 0 512 512">
  <path fill="#26e" d="M493.6 219.4c-12.1-8.1-43.7-11.6-66.7-5.4-1.2-22.9-13.1-42.3-34.7-59.1l-8-5.4-5.3 8.1c-10.5 15.9-14.9 37.1-13.3 56.4 1.2 11.9 5.4 25.2 13.3 34.9-30 17.4-57.6 13.4-179.9 13.4H10c-.6 27.6 3.9 80.8 37.7 124 3.7 4.8 7.8 9.4 12.3 13.8 27.5 27.5 69 47.7 131 47.7 94.7.1 175.8-51.1 225.1-174.8 16.2.3 59.1 2.9 80.1-37.6.5-.7 5.3-10.8 5.3-10.8l-8-5.4ZM133.3 194.2h-53.1v53.1h53.1v-53.1ZM201.9 194.2h-53.1v53.1h53.1v-53.1ZM270.5 194.2h-53.1v53.1h53.1v-53.1ZM339.1 194.2h-53.1v53.1h53.1v-53.1ZM64.7 194.2H11.6v53.1h53.1v-53.1ZM133.3 127.1h-53.1v53.1h53.1v-53.1ZM201.9 127.1h-53.1v53.1h53.1v-53.1ZM270.5 127.1h-53.1v53.1h53.1v-53.1ZM270.5 60h-53.1v53.1h53.1V60Z"/>
</svg>